<?xml version="1.0" standalone="no"?>
<!DOCTYPE svg PUBLIC "-//W3C//DTD SVG 20010904//EN"
 "http://www.w3.org/TR/2001/REC-SVG-20010904/DTD/svg10.dtd">
<svg version="1.0" xmlns="http://www.w3.org/2000/svg"
 width="263.000000pt" height="315.000000pt" viewBox="0 0 263.000000 315.000000"
 preserveAspectRatio="xMidYMid meet">

<g transform="translate(0.000000,315.000000) scale(0.100000,-0.100000)"
fill="#000000" stroke="none">
<path d="M904 2960 c-35 -14 -63 -59 -70 -111 -4 -27 -7 -49 -8 -50 0 0 -46
-4 -100 -8 -97 -7 -99 -8 -132 -44 -33 -36 -34 -38 -34 -127 l0 -90 603 2 602
3 3 80 c2 71 0 85 -21 115 -31 48 -58 58 -155 61 -45 2 -86 6 -91 9 -4 3 -10
29 -13 58 -4 41 -12 60 -32 80 l-26 27 -253 2 c-138 1 -262 -2 -273 -7z m453
-176 c27 -7 39 -40 22 -60 -10 -12 -51 -14 -257 -12 -224 3 -246 5 -256 21 -9
15 -7 22 13 38 21 17 40 19 240 19 119 0 226 -3 238 -6z"/>
<path d="M413 2591 c-77 -56 -73 10 -73 -1102 0 -973 0 -990 20 -1029 11 -22
39 -52 62 -67 l42 -28 508 -3 508 -3 0 406 0 405 -365 0 c-402 0 -410 1 -440
60 -12 23 -15 73 -15 255 l0 226 -33 -25 c-19 -15 -37 -26 -40 -26 -13 0 -8
215 6 232 11 14 480 409 516 435 13 9 57 -23 281 -211 l265 -222 3 -117 c1
-64 0 -117 -3 -117 -4 0 -22 12 -41 26 l-34 26 0 -230 c0 -127 -3 -237 -6
-246 -5 -14 17 -16 205 -16 l211 0 0 632 c0 622 0 632 -21 675 -20 42 -79 93
-106 93 -9 0 -13 -16 -13 -48 0 -27 -7 -57 -16 -70 -37 -53 -27 -52 -669 -52
-535 0 -601 2 -632 17 -40 18 -53 46 -53 109 0 53 -11 56 -67 15z m971 -1627
c22 -9 20 -51 -3 -64 -13 -6 -167 -10 -432 -10 -370 0 -414 2 -431 17 -10 9
-18 21 -18 28 0 33 20 35 446 35 232 0 429 -3 438 -6z m-383 -294 c22 -12 25
-43 5 -59 -9 -8 -84 -11 -251 -9 -211 3 -239 5 -248 20 -9 13 -7 22 7 37 18
20 30 21 243 21 136 0 232 -4 244 -10z"/>
<path d="M893 2048 c-125 -105 -229 -199 -231 -209 -2 -11 -1 -19 2 -19 5 0
39 27 70 55 6 6 96 82 200 169 l188 158 22 -20 c11 -11 107 -90 211 -177 105
-87 198 -165 209 -174 17 -15 18 -15 15 6 -3 14 -84 89 -231 212 l-227 190
-228 -191z"/>
<path d="M934 1942 l-189 -158 0 -265 0 -264 123 -3 122 -3 0 165 c0 200 -3
196 131 196 72 0 91 -3 113 -21 l26 -20 0 -160 0 -160 118 3 117 3 3 265 2
265 -102 85 c-56 47 -141 118 -189 157 l-87 73 -188 -158z"/>
<path d="M1068 1390 l-3 -140 58 0 57 0 0 140 0 140 -54 0 -55 0 -3 -140z"/>
<path d="M1560 1038 c1 -75 3 -98 11 -85 9 15 29 17 184 17 157 0 175 -2 184
-18 6 -11 6 -24 0 -35 -9 -15 -29 -17 -176 -17 -142 0 -169 2 -185 17 -18 16
-19 14 -16 -78 l3 -94 195 0 195 0 3 198 2 197 -200 0 -200 0 0 -102z"/>
<path d="M2040 1050 c0 -87 1 -90 19 -80 11 5 47 10 80 10 l61 0 0 68 c0 40 5
73 12 80 9 9 -8 12 -80 12 l-92 0 0 -90z"/>
<path d="M2258 1128 c7 -7 12 -40 12 -80 l0 -68 61 0 c68 0 99 -12 99 -38 0
-32 -22 -42 -92 -42 l-68 0 0 -64 c0 -35 -3 -71 -6 -80 -5 -14 6 -16 85 -16
l91 0 0 200 0 200 -97 0 c-75 0 -94 -3 -85 -12z"/>
<path d="M2042 825 l3 -80 79 0 80 0 -3 70 c-1 39 -5 73 -9 76 -4 4 -40 9 -80
11 l-73 4 3 -81z"/>
<path d="M1560 465 l0 -205 200 0 200 0 0 205 0 205 -200 0 -200 0 0 -205z
m167 100 l48 -45 46 46 c53 52 91 58 97 15 3 -17 -9 -36 -42 -70 l-46 -47 45
-44 c49 -48 58 -83 25 -100 -17 -9 -28 -4 -73 39 l-52 49 -52 -49 c-51 -48
-75 -55 -95 -25 -13 19 -9 26 42 80 l50 52 -41 40 c-53 51 -64 71 -48 90 20
24 47 16 96 -31z"/>
<path d="M2040 465 l0 -205 200 0 200 0 0 67 c0 52 -3 64 -12 55 -15 -15 -330
-17 -359 -2 -10 6 -19 19 -19 29 0 38 21 42 209 39 l181 -3 0 30 0 30 -172 -3
c-202 -3 -218 -1 -218 33 0 38 32 45 195 45 79 0 155 -4 169 -10 26 -9 26 -9
26 45 l0 55 -200 0 -200 0 0 -205z"/>
</g>
</svg>
